<?xml version="1.0" encoding="UTF-8"?>
<svg id="Layer_1" data-name="Layer 1" xmlns="http://www.w3.org/2000/svg" viewBox="0 0 1080 1080">
  <defs>
    <style>
      .cls-1 {
        fill: #ade1fb;
      }

      .cls-1, .cls-2 {
        stroke-width: 0px;
      }

      .cls-2 {
        fill: #266ca9;
      }
    </style>
  </defs>
  <g>
    <path class="cls-2" d="M834.691472971508119,522.582642669301094c-5.235619013446922-152.032238501115899-132.025545407190293-145.244562796257924-132.025545407190293-145.244562796257924l-316.04119918869219-36.466292214096029c10.159310373592234-16.325296936103769,22.313658029497674-31.764091149379965,36.510698581407269-45.915642251822646,99.948985063445434-99.950068145604746,384.849406868168444-22.935888712824635,384.849406868168444-22.935888712824635,0,0,36.244260377550745,134.109395424017748,26.70663914630677,250.562385975001234Z"/>
    <path class="cls-1" d="M834.691472971508119,522.582642669301094c0,.088812734522435,0,.133219101850955-.045489449468732.177625469159466-4.304168382115677,53.235652823329474-18.232604566026566,102.744420039310171-49.598663032824334,134.109395424017748-14.15155110249907,14.195957469761197-29.589803774648317,26.351388207862328-45.914017628661895,36.51069858140545l-36.467375296235332-316.042282270840587s126.789926393743372-6.787675704857975,132.025545407190293,145.244562796257924Z"/>
  </g>
  <path class="cls-2" d="M956.036348029128931,420.551827544273692c41.86190894289939,146.26303406345869,5.190790846187156,310.260943430314001-110.014179828751367,425.465914100106602-169.011621836058112,169.011621828434727-443.032585580949672,169.003160034464599-612.03564242901848.0001031788197-169.011518635936227-169.011518643510499-169.011621822226516-443.024123793139552.000000013735189-612.03574562151698,115.196302502132312-115.196302496975477,279.169652047516138-151.876295144224059,425.432479724035147-110.031103385286769-100.520776254243174-12.300240496131664-205.479966596058148,20.127806975069689-282.635373305956819,97.283213681495909-133.092364546013414,133.092364540072595-133.100929531208749,348.885805769417857-.000103203317849,481.986632103240481,133.092467732611112,133.092467738570122,348.894267557170679,133.092261358420728,481.986632103240481-.000103181660961,77.16407488274308-77.164074879281543,109.591503203437242-182.139569640112313,97.266186926033697-282.66891087519798Z"/>
</svg>