<?xml version="1.0" encoding="UTF-8"?><svg id="Layer_1" xmlns="http://www.w3.org/2000/svg" viewBox="0 0 1080 183.132530120482443"><defs><style>.cls-1{fill:#ade1fb;}.cls-1,.cls-2{stroke-width:0px;}.cls-2{fill:#266ca9;}</style></defs><path class="cls-2" d="M296.33105206489563,137.020750077358571c-8.7822265625,0-16.583984375-1.587890625-23.40234375-4.765625-6.8203125-3.1748046875-12.19140625-7.84765625-16.115234375-14.013671875s-5.88671875-13.6845703125-5.88671875-22.5615234375c0-6.4462890625,1.1435546875-12.33203125,3.43359375-17.6572265625,2.2880859375-5.3251953125,5.5576171875-9.9013671875,9.8095703125-13.7333984375,4.25-3.830078125,9.3193359375-6.796875,15.205078125-8.8984375,5.8857421875-2.1025390625,12.423828125-3.1533203125,19.619140625-3.1533203125,4.1103515625,0,8.314453125.419921875,12.6123046875,1.26171875,4.2958984375.83984375,7.98828125,1.9609375,11.0703125,3.36328125l.9814453125,20.740234375-7.84765625.560546875-4.6240234375-14.294921875c-1.7763671875-1.0263671875-3.8544921875-1.796875-6.236328125-2.3115234375-2.3828125-.5126953125-4.7890625-.7705078125-7.216796875-.7705078125-5.98046875,0-10.955078125,1.3544921875-14.9248046875,4.0634765625-3.97265625,2.7109375-6.9609375,6.4462890625-8.96875,11.2109375-2.0107421875,4.7646484375-3.0126953125,10.2783203125-3.0126953125,16.5361328125,0,7.4755859375,1.2607421875,13.873046875,3.783203125,19.19921875,2.5224609375,5.32421875,5.9072265625,9.388671875,10.16015625,12.19140625,4.25,2.802734375,8.990234375,4.2041015625,14.2236328125,4.2041015625,2.5224609375,0,5.0908203125-.3720703125,7.7080078125-1.12109375,2.6142578125-.7470703125,4.810546875-1.8212890625,6.5859375-3.2236328125l5.3251953125-12.751953125,8.408203125.8408203125-4.0634765625,18.2177734375c-2.8974609375,1.775390625-6.7509765625,3.36328125-11.5615234375,4.7646484375-4.8134765625,1.4013671875-9.833984375,2.1025390625-15.0654296875,2.1025390625Z"/><path class="cls-2" d="M356.03027081489563,136.880125077358571c-4.2041015625,0-7.826171875-.888671875-10.8603515625-2.662109375-3.037109375-1.7744140625-5.349609375-3.923828125-6.9365234375-6.447265625-1.58984375-2.521484375-2.3828125-4.9501953125-2.3828125-7.287109375,0-3.2685546875,1.02734375-6.0009765625,3.0830078125-8.197265625,2.0537109375-2.1943359375,5.3251953125-3.994140625,9.8095703125-5.3955078125l21.861328125-6.7265625v-5.7451171875c0-2.0546875-.654296875-3.970703125-1.9619140625-5.74609375-1.3095703125-1.7734375-3.037109375-3.22265625-5.1845703125-4.34375-2.150390625-1.12109375-4.484375-1.681640625-7.0078125-1.681640625-1.775390625,0-3.0126953125.3984375-3.712890625,1.1904296875-.701171875.794921875-1.1455078125,2.3603515625-1.33203125,4.6943359375l-.560546875,7.568359375c-4.203125.9345703125-7.685546875.818359375-10.439453125-.3505859375-2.7568359375-1.1669921875-4.134765625-3.10546875-4.134765625-5.8154296875,0-1.681640625.841796875-3.41015625,2.5234375-5.185546875,1.681640625-1.7734375,3.8046875-3.455078125,6.3759765625-5.044921875,2.568359375-1.587890625,5.2548828125-2.943359375,8.0576171875-4.064453125s5.37109375-1.8212890625,7.70703125-2.1015625c7.84765625,0,14.083984375,1.8701171875,18.708984375,5.60546875,4.6240234375,3.7373046875,6.982421875,8.736328125,7.076171875,14.994140625l-.419921875,20.740234375c0,2.3369140625.0703125,4.2744140625.2099609375,5.81640625.140625,1.541015625.396484375,2.7802734375.7705078125,3.712890625l9.109375,1.681640625v5.326171875l-8.267578125,3.5029296875c-1.58984375.654296875-3.037109375,1.142578125-4.3447265625,1.4716796875-1.3095703125.326171875-2.5224609375.490234375-3.6435546875.490234375-3.36328125,0-5.69921875-1.7734375-7.0068359375-5.3251953125l-2.1025390625-6.166015625,2.6630859375.560546875c-2.896484375,3.45703125-5.83984375,6.14453125-8.8291015625,8.0576171875-2.990234375,1.9140625-5.93359375,2.873046875-8.828125,2.873046875ZM362.05566143989563,125.669187577358571c1.587890625,0,3.10546875-.326171875,4.5546875-.98046875,1.447265625-.6533203125,2.779296875-1.681640625,3.994140625-3.083984375v-14.013671875l-11.630859375,2.5234375c-2.2421875.4677734375-3.8544921875,1.2607421875-4.8349609375,2.3818359375-.9814453125,1.12109375-1.4716796875,2.6162109375-1.4716796875,4.484375,0,2.2421875.9111328125,4.251953125,2.732421875,6.0263671875,1.822265625,1.775390625,4.0400390625,2.662109375,6.65625,2.662109375Z"/><path class="cls-2" d="M401.15331768989563,135.759031327358571l-.419921875-6.025390625,8.6884765625-2.2421875c.091796875-.373046875.1865234375-1.16796875.2802734375-2.3828125.091796875-1.212890625.1865234375-2.82421875.2802734375-4.8349609375.091796875-2.0078125.1396484375-4.3662109375.1396484375-7.0771484375l.140625-10.650390625c0-2.89453125-.09375-5.5810546875-.2802734375-8.0576171875-.1884765625-2.4736328125-.5146484375-4.7861328125-.9814453125-6.9365234375l-8.96875-1.9619140625v-5.7451171875l22.5625-6.0263671875,3.0830078125,2.2421875-.560546875,11.2109375.4208984375.1396484375c2.7080078125-5.23046875,5.46484375-8.7802734375,8.267578125-10.650390625,2.802734375-1.8671875,5.60546875-2.802734375,8.408203125-2.802734375,2.4287109375,0,4.505859375.6552734375,6.236328125,1.962890625,1.7275390625,1.30859375,2.591796875,3.31640625,2.591796875,6.025390625,0,2.7109375-.9345703125,4.8125-2.802734375,6.306640625-1.869140625,1.4951171875-4.111328125,2.2421875-6.7265625,2.2421875-2.0556640625,0-3.923828125-.373046875-5.60546875-1.12109375-1.681640625-.7470703125-3.45703125-2.0087890625-5.32421875-3.7841796875l3.36328125.4208984375c-1.49609375,1.12109375-2.943359375,2.5458984375-4.3447265625,4.2734375-1.4013671875,1.73046875-2.6630859375,3.76171875-3.7841796875,6.095703125l.140625,11.6318359375c.091796875,3.0830078125.1865234375,5.9560546875.2802734375,8.6181640625.091796875,2.6630859375.1865234375,4.953125.2802734375,6.8671875.091796875,1.916015625.1865234375,3.2470703125.2802734375,3.994140625l12.1923828125,1.9609375-.4208984375,6.306640625h-37.4169921875Z"/><path class="cls-2" d="M485.09570050239563,136.880125077358571c-5.7939453125,0-11.0009765625-1.3076171875-15.625-3.923828125-4.625-2.6142578125-8.24609375-6.236328125-10.8603515625-10.8603515625-2.6171875-4.625-3.923828125-9.92578125-3.923828125-15.9052734375,0-6.5390625,1.447265625-12.2626953125,4.34375-17.1669921875,2.89453125-4.9052734375,6.6787109375-8.734375,11.3515625-11.4912109375,4.669921875-2.7548828125,9.6689453125-4.0859375,14.994140625-3.994140625,8.1279296875.09375,14.3154296875,2.662109375,18.568359375,7.70703125,4.25,5.044921875,6.3759765625,11.6318359375,6.3759765625,19.759765625v3.0830078125h-41.48046875v-7.0068359375h29.2880859375l-1.9609375,2.943359375v-4.205078125c0-4.669921875-1.0517578125-8.359375-3.1533203125-11.0703125-2.1025390625-2.708984375-5.0234375-4.064453125-8.7587890625-4.064453125-2.4306640625,0-4.6728515625.701171875-6.7265625,2.1025390625-2.0556640625,1.4013671875-3.69140625,3.5029296875-4.904296875,6.3056640625-1.2158203125,2.802734375-1.822265625,6.306640625-1.822265625,10.5107421875v2.5224609375c0,6.9150390625,1.7978515625,12.42578125,5.3955078125,16.5361328125,3.5947265625,4.1123046875,8.3837890625,6.166015625,14.3642578125,6.166015625,3.1748046875,0,6.046875-.58203125,8.6181640625-1.751953125,2.568359375-1.1669921875,5.1142578125-3.19921875,7.6376953125-6.095703125l4.0634765625,3.6435546875c-2.6162109375,5.4189453125-6.1904296875,9.4833984375-10.720703125,12.19140625-4.5322265625,2.7109375-9.552734375,4.064453125-15.064453125,4.064453125Z"/><path class="cls-2" d="M550.39941143989563,136.880125077358571c-5.7939453125,0-11.0009765625-1.3076171875-15.625-3.923828125-4.625-2.6142578125-8.24609375-6.236328125-10.8603515625-10.8603515625-2.6171875-4.625-3.923828125-9.92578125-3.923828125-15.9052734375,0-6.5390625,1.447265625-12.2626953125,4.34375-17.1669921875,2.89453125-4.9052734375,6.6787109375-8.734375,11.3515625-11.4912109375,4.669921875-2.7548828125,9.6689453125-4.0859375,14.994140625-3.994140625,8.1279296875.09375,14.3154296875,2.662109375,18.568359375,7.70703125,4.25,5.044921875,6.3759765625,11.6318359375,6.3759765625,19.759765625v3.0830078125h-41.48046875v-7.0068359375h29.2880859375l-1.9609375,2.943359375v-4.205078125c0-4.669921875-1.0517578125-8.359375-3.1533203125-11.0703125-2.1025390625-2.708984375-5.0234375-4.064453125-8.7587890625-4.064453125-2.4306640625,0-4.6728515625.701171875-6.7265625,2.1025390625-2.0556640625,1.4013671875-3.69140625,3.5029296875-4.904296875,6.3056640625-1.2158203125,2.802734375-1.822265625,6.306640625-1.822265625,10.5107421875v2.5224609375c0,6.9150390625,1.7978515625,12.42578125,5.3955078125,16.5361328125,3.5947265625,4.1123046875,8.3837890625,6.166015625,14.3642578125,6.166015625,3.1748046875,0,6.046875-.58203125,8.6181640625-1.751953125,2.568359375-1.1669921875,5.1142578125-3.19921875,7.6376953125-6.095703125l4.0634765625,3.6435546875c-2.6162109375,5.4189453125-6.1904296875,9.4833984375-10.720703125,12.19140625-4.5322265625,2.7109375-9.552734375,4.064453125-15.064453125,4.064453125Z"/><path class="cls-2" d="M583.33105206489563,135.759031327358571l-.419921875-6.025390625,8.6884765625-2.2421875c.091796875-.373046875.1865234375-1.16796875.2802734375-2.3828125.091796875-1.212890625.1865234375-2.82421875.2802734375-4.8349609375.091796875-2.0078125.1396484375-4.3662109375.1396484375-7.0771484375l.140625-10.650390625c0-2.89453125-.09375-5.5810546875-.2802734375-8.0576171875-.1884765625-2.4736328125-.5146484375-4.7861328125-.9814453125-6.9365234375l-8.96875-1.9619140625v-5.7451171875l22.5625-6.0263671875,3.0830078125,2.2421875-.560546875,11.2109375.4208984375.1396484375c2.7080078125-5.23046875,5.46484375-8.7802734375,8.267578125-10.650390625,2.802734375-1.8671875,5.60546875-2.802734375,8.408203125-2.802734375,2.4287109375,0,4.505859375.6552734375,6.236328125,1.962890625,1.7275390625,1.30859375,2.591796875,3.31640625,2.591796875,6.025390625,0,2.7109375-.9345703125,4.8125-2.802734375,6.306640625-1.869140625,1.4951171875-4.111328125,2.2421875-6.7265625,2.2421875-2.0556640625,0-3.923828125-.373046875-5.60546875-1.12109375-1.681640625-.7470703125-3.45703125-2.0087890625-5.32421875-3.7841796875l3.36328125.4208984375c-1.49609375,1.12109375-2.943359375,2.5458984375-4.3447265625,4.2734375-1.4013671875,1.73046875-2.6630859375,3.76171875-3.7841796875,6.095703125l.140625,11.6318359375c.091796875,3.0830078125.1865234375,5.9560546875.2802734375,8.6181640625.091796875,2.6630859375.1865234375,4.953125.2802734375,6.8671875.091796875,1.916015625.1865234375,3.2470703125.2802734375,3.994140625l12.1923828125,1.9609375-.4208984375,6.306640625h-37.4169921875Z"/><path class="cls-2" d="M668.11425518989563,53.499265702358571h37.13671875c15.0400390625,0,26.765625,3.52734375,35.173828125,10.580078125,8.408203125,7.0546875,12.6123046875,16.88671875,12.6123046875,29.498046875,0,8.22265625-1.986328125,15.509765625-5.9560546875,21.861328125-3.9716796875,6.3544921875-9.4375,11.330078125-16.3955078125,14.9248046875-6.9609375,3.59765625-14.9248046875,5.3955078125-23.8935546875,5.3955078125h-38.677734375l-.419921875-6.4462890625,8.828125-2.1025390625c.2802734375-.74609375.5126953125-3.12890625.701171875-7.146484375.185546875-4.015625.279296875-8.734375.279296875-14.154296875v-22.421875c0-5.791015625-.09375-10.671875-.279296875-14.6435546875-.1884765625-3.9697265625-.4208984375-6.236328125-.701171875-6.796875l-8.828125-2.1025390625.419921875-6.4453125ZM694.31933331489563,62.186765702358571c0,.7490234375-.0234375,1.962890625-.0693359375,3.64453125-.048828125,1.681640625-.0947265625,3.947265625-.140625,6.7958984375-.0478515625,2.8515625-.0693359375,6.470703125-.0693359375,10.8603515625v22.421875c0,2.5234375.021484375,5.09375.0693359375,7.7080078125.0458984375,2.6162109375.140625,4.9990234375.2802734375,7.1474609375.140625,2.1494140625.2568359375,3.876953125.3505859375,5.1845703125,2.4287109375.3740234375,4.740234375.6787109375,6.9365234375.9111328125,2.1943359375.234375,4.2744140625.349609375,6.236328125.349609375,8.5947265625,0,15.1103515625-2.4033203125,19.548828125-7.216796875,4.4365234375-4.810546875,6.65625-12.16796875,6.65625-22.0712890625,0-6.4462890625-.748046875-11.9580078125-2.2421875-16.5361328125-1.4951171875-4.576171875-3.5966796875-8.3603515625-6.3056640625-11.3515625-2.7109375-2.98828125-5.91015625-5.1845703125-9.599609375-6.5859375-3.69140625-1.4013671875-7.7314453125-2.1015625-12.1220703125-2.1015625-1.4951171875,0-3.0361328125.0693359375-4.6240234375.2099609375-1.58984375.1396484375-3.2236328125.3505859375-4.9052734375.6298828125Z"/><path class="cls-2" d="M795.77929425239563,136.880125077358571c-5.7939453125,0-11.0009765625-1.3076171875-15.625-3.923828125-4.625-2.6142578125-8.24609375-6.236328125-10.8603515625-10.8603515625-2.6171875-4.625-3.923828125-9.92578125-3.923828125-15.9052734375,0-6.5390625,1.447265625-12.2626953125,4.34375-17.1669921875,2.89453125-4.9052734375,6.6787109375-8.734375,11.3515625-11.4912109375,4.669921875-2.7548828125,9.6689453125-4.0859375,14.994140625-3.994140625,8.1279296875.09375,14.3154296875,2.662109375,18.568359375,7.70703125,4.25,5.044921875,6.3759765625,11.6318359375,6.3759765625,19.759765625v3.0830078125h-41.48046875v-7.0068359375h29.2880859375l-1.9609375,2.943359375v-4.205078125c0-4.669921875-1.0517578125-8.359375-3.1533203125-11.0703125-2.1025390625-2.708984375-5.0234375-4.064453125-8.7587890625-4.064453125-2.4306640625,0-4.6728515625.701171875-6.7265625,2.1025390625-2.0556640625,1.4013671875-3.69140625,3.5029296875-4.904296875,6.3056640625-1.2158203125,2.802734375-1.822265625,6.306640625-1.822265625,10.5107421875v2.5224609375c0,6.9150390625,1.7978515625,12.42578125,5.3955078125,16.5361328125,3.5947265625,4.1123046875,8.3837890625,6.166015625,14.3642578125,6.166015625,3.1748046875,0,6.046875-.58203125,8.6181640625-1.751953125,2.568359375-1.1669921875,5.1142578125-3.19921875,7.6376953125-6.095703125l4.0634765625,3.6435546875c-2.6162109375,5.4189453125-6.1904296875,9.4833984375-10.720703125,12.19140625-4.5322265625,2.7109375-9.552734375,4.064453125-15.064453125,4.064453125Z"/><path class="cls-2" d="M852.67382550239563,136.880125077358571c-3.7373046875,0-7.4755859375-.419921875-11.2109375-1.26171875-3.7373046875-.83984375-6.8662109375-1.9609375-9.3896484375-3.36328125l-.7001953125-15.974609375h8.2685546875l2.9423828125,10.08984375c3.36328125,2.1494140625,7.052734375,3.22265625,11.0712890625,3.22265625,2.98828125,0,5.32421875-.65234375,7.005859375-1.9619140625,1.681640625-1.3076171875,2.5234375-3.03515625,2.5234375-5.1845703125,0-2.2421875-.841796875-4.15625-2.5234375-5.74609375-1.681640625-1.587890625-5.0927734375-3.36328125-10.2294921875-5.3251953125-6.8203125-2.6142578125-11.5849609375-5.37109375-14.2939453125-8.2685546875-2.7109375-2.89453125-4.064453125-6.5380859375-4.064453125-10.9296875,0-3.64453125,1.12109375-6.8671875,3.36328125-9.669921875s5.34765625-4.9970703125,9.3193359375-6.5859375c3.9697265625-1.587890625,8.5703125-2.3828125,13.8037109375-2.3828125,2.89453125,0,5.8154296875.2587890625,8.7587890625.7705078125,2.9423828125.5146484375,5.3955078125,1.2392578125,7.3564453125,2.1728515625l1.5419921875,15.6953125h-8.1279296875l-3.22265625-9.810546875c-.935546875-.560546875-2.056640625-1.001953125-3.36328125-1.3310546875-1.3095703125-.326171875-2.6171875-.490234375-3.923828125-.490234375-2.9912109375,0-5.3955078125.6787109375-7.2177734375,2.0322265625-1.8212890625,1.35546875-2.732421875,3.1064453125-2.732421875,5.2548828125,0,2.3359375,1.05078125,4.2978515625,3.1533203125,5.8857421875,2.1015625,1.58984375,5.861328125,3.5517578125,11.28125,5.8857421875,6.166015625,2.6162109375,10.53125,5.3251953125,13.1025390625,8.1279296875,2.568359375,2.802734375,3.853515625,6.259765625,3.853515625,10.3701171875,0,5.60546875-2.4521484375,10.1376953125-7.357421875,13.5927734375-4.904296875,3.4580078125-11.234375,5.185546875-18.98828125,5.185546875Z"/><path class="cls-2" d="M885.32616925239563,135.759031327358571l-.4208984375-6.166015625,9.3896484375-2.1015625c.091796875-.373046875.1865234375-1.16796875.2802734375-2.3828125.091796875-1.212890625.1865234375-2.82421875.2802734375-4.8349609375.091796875-2.0078125.1396484375-4.3662109375.1396484375-7.0771484375l.140625-10.650390625c0-2.89453125-.09375-5.5810546875-.2802734375-8.0576171875-.1884765625-2.4736328125-.5146484375-4.7861328125-.9814453125-6.9365234375l-9.388671875-1.9619140625v-5.7451171875l23.962890625-6.0263671875,3.2236328125,2.3818359375c-.2802734375,2.8974609375-.490234375,5.81640625-.630859375,8.7587890625-.1396484375,2.943359375-.2099609375,6.330078125-.2099609375,10.16015625v17.6572265625c0,3.45703125.0703125,6.5859375.2099609375,9.388671875.140625,2.802734375.3505859375,4.5791015625.630859375,5.326171875l9.3896484375,2.1015625-.4208984375,6.166015625h-35.314453125ZM903.12402081489563,60.786375077358571c-3.271484375,0-5.88671875-1.0029296875-7.84765625-3.013671875-1.962890625-2.0078125-2.943359375-4.4140625-2.943359375-7.216796875,0-2.708984375.98046875-5.0908203125,2.943359375-7.146484375,1.9609375-2.0546875,4.576171875-3.083984375,7.84765625-3.083984375,3.2685546875,0,5.8369140625,1.029296875,7.70703125,3.083984375,1.8681640625,2.0556640625,2.802734375,4.4375,2.802734375,7.146484375,0,2.802734375-.9345703125,5.208984375-2.802734375,7.216796875-1.8701171875,2.0107421875-4.4384765625,3.013671875-7.70703125,3.013671875Z"/><path class="cls-2" d="M926.10546612739563,135.759031327358571l-.419921875-6.025390625,8.6884765625-2.2421875c.091796875-.373046875.1865234375-1.16796875.2802734375-2.3828125.091796875-1.212890625.1865234375-2.82421875.2802734375-4.8349609375.091796875-2.0078125.1396484375-4.3662109375.1396484375-7.0771484375l.140625-10.650390625c0-2.89453125-.09375-5.5810546875-.2802734375-8.0576171875-.1884765625-2.4736328125-.5146484375-4.7861328125-.9814453125-6.9365234375l-8.96875-1.9619140625v-5.7451171875l22.5625-6.0263671875,3.0830078125,2.2421875-.560546875,11.2109375.4208984375.1396484375c2.7080078125-5.23046875,5.46484375-8.7802734375,8.267578125-10.650390625,2.802734375-1.8671875,5.60546875-2.802734375,8.408203125-2.802734375,2.4287109375,0,4.505859375.6552734375,6.236328125,1.962890625,1.7275390625,1.30859375,2.591796875,3.31640625,2.591796875,6.025390625,0,2.7109375-.9345703125,4.8125-2.802734375,6.306640625-1.869140625,1.4951171875-4.111328125,2.2421875-6.7265625,2.2421875-2.0556640625,0-3.923828125-.373046875-5.60546875-1.12109375-1.681640625-.7470703125-3.45703125-2.0087890625-5.32421875-3.7841796875l3.36328125.4208984375c-1.49609375,1.12109375-2.943359375,2.5458984375-4.3447265625,4.2734375-1.4013671875,1.73046875-2.6630859375,3.76171875-3.7841796875,6.095703125l.140625,11.6318359375c.091796875,3.0830078125.1865234375,5.9560546875.2802734375,8.6181640625.091796875,2.6630859375.1865234375,4.953125.2802734375,6.8671875.091796875,1.916015625.1865234375,3.2470703125.2802734375,3.994140625l12.1923828125,1.9609375-.4208984375,6.306640625h-37.4169921875Z"/><path class="cls-2" d="M1010.04784893989563,136.880125077358571c-5.7939453125,0-11.0009765625-1.3076171875-15.625-3.923828125-4.625-2.6142578125-8.24609375-6.236328125-10.8603515625-10.8603515625-2.6171875-4.625-3.923828125-9.92578125-3.923828125-15.9052734375,0-6.5390625,1.447265625-12.2626953125,4.34375-17.1669921875,2.89453125-4.9052734375,6.6787109375-8.734375,11.3515625-11.4912109375,4.669921875-2.7548828125,9.6689453125-4.0859375,14.994140625-3.994140625,8.1279296875.09375,14.3154296875,2.662109375,18.568359375,7.70703125,4.25,5.044921875,6.3759765625,11.6318359375,6.3759765625,19.759765625v3.0830078125h-41.48046875v-7.0068359375h29.2880859375l-1.9609375,2.943359375v-4.205078125c0-4.669921875-1.0517578125-8.359375-3.1533203125-11.0703125-2.1025390625-2.708984375-5.0234375-4.064453125-8.7587890625-4.064453125-2.4306640625,0-4.6728515625.701171875-6.7265625,2.1025390625-2.0556640625,1.4013671875-3.69140625,3.5029296875-4.904296875,6.3056640625-1.2158203125,2.802734375-1.822265625,6.306640625-1.822265625,10.5107421875v2.5224609375c0,6.9150390625,1.7978515625,12.42578125,5.3955078125,16.5361328125,3.5947265625,4.1123046875,8.3837890625,6.166015625,14.3642578125,6.166015625,3.1748046875,0,6.046875-.58203125,8.6181640625-1.751953125,2.568359375-1.1669921875,5.1142578125-3.19921875,7.6376953125-6.095703125l4.0634765625,3.6435546875c-2.6162109375,5.4189453125-6.1904296875,9.4833984375-10.720703125,12.19140625-4.5322265625,2.7109375-9.552734375,4.064453125-15.064453125,4.064453125Z"/><path class="cls-2" d="M182.50445294380188,91.266233475796071c-.995620727539062-28.91107177734375-25.106521606445312-27.62030029296875-25.106521606445312-27.62030029296875l-60.099700927734375-6.9345703125c1.931938171386719-3.1044921875,4.243255615234375-6.0404052734375,6.943023681640625-8.73150634765625,19.0067138671875-19.006927490234375,73.184555053710938-4.361572265625,73.184555053710938-4.361572265625,0,0,6.892364501953125,25.5028076171875,5.078643798828125,47.64794921875Z"/><path class="cls-1" d="M182.50445294380188,91.266233475796071c0,.01690673828125,0,.02532958984375-.008651733398438.03375244140625-.818496704101562,10.12353515625-3.467193603515625,19.538330078125-9.431884765625,25.5028076171875-2.691116333007812,2.6995849609375-5.626922607421875,5.0111083984375-8.731201171875,6.94305419921875l-6.934783935546875-60.09991455078125s24.11090087890625-1.290771484375,25.106521606445312,27.62030029296875Z"/><path class="cls-2" d="M205.579907655715942,71.863584550014821c7.96063232421875,27.81396484375.987106323242188,59.00048828125-20.920745849609375,80.9083251953125-32.139938354492188,32.13995361328125-84.2489013671875,32.13836669921875-116.387214660644531,0-32.139926910400391-32.13995361328125-32.139945983886719-84.247314453125,0-116.387237548828125,21.906204223632812-21.90618896484375,53.088050842285156-28.88140869140625,80.902000427246094-20.923980712890625-19.115447998046875-2.33905029296875-39.074920654296875,3.82757568359375-53.747100830078125,18.499786376953125-25.309394836425781,25.30938720703125-25.311019897460938,66.345550537109375-.000022888183594,91.656585693359375,25.309410095214844,25.30938720703125,66.347160339355469,25.30938720703125,91.656562805175781,0,14.673843383789062-14.673828125,20.840377807617188-34.63641357421875,18.496536254882812-53.75347900390625h-.000015258789062Z"/></svg>